# xmcd
#
# Track frame offsets:
#	150
#	9540
#	27717
#	45764
#	79863
#	102513
#	121951
#	140119
#	152782
#
# Disc length: 2323 seconds
#
# Revision: 1
# Processed by: cddbd v1.5.2PL0 Copyright (c) Steve Scherf et al.
# Submitted via: audiograbber 1.83.01
#
DISCID=72091109
DTITLE=3000 HOMBRES - BAILA SRTA.?
DYEAR=2005
DGENRE=Blues
TTITLE0=Afrika
TTITLE1=At last
TTITLE2=Choo choo boogie
TTITLE3=Fried neckbones
TTITLE4=Sopa de caramelo
TTITLE5=Mannish boy
TTITLE6=Mean mistreatin'  mama
TTITLE7=Shame shame shame
TTITLE8=Old blues
EXTD=
EXTT0=
EXTT1=
EXTT2=
EXTT3=
EXTT4=
EXTT5=
EXTT6=
EXTT7=
EXTT8=
PLAYORDER=
